<svg height="448pt" viewBox="0 -20 448 448" width="448pt" xmlns="http://www.w3.org/2000/svg"><path d="m184.566406 251.078125c-6.855468-16.460937-13.949218-33.476563-24.613281-33.476563s-17.753906 17.015626-24.609375 33.476563c-3.777344 10.15625-8.679688 19.855469-14.617188 28.921875h78.472657c-5.9375-9.066406-10.847657-18.765625-14.632813-28.921875zm0 0"/><path d="m71.367188 244.921875c6.855468 16.460937 13.945312 33.476563 24.632812 33.476563s17.753906-17.015626 24.609375-33.476563c3.769531-10.15625 8.664063-19.855469 14.589844-28.921875h-78.445313c5.9375 9.0625 10.839844 18.765625 14.613282 28.921875zm0 0"/><path d="m8 328h432c4.417969 0 8 3.582031 8 8v64c0 4.417969-3.582031 8-8 8h-432c-4.417969 0-8-3.582031-8-8v-64c0-4.417969 3.582031-8 8-8zm0 0"/><path d="m406.398438 200c-11.972657-91.597656-90.023438-160.105469-182.398438-160.105469s-170.425781 68.507813-182.398438 160.105469zm0 0"/><path d="m200.128906 25.472656c15.851563-1.964844 31.890625-1.964844 47.742188 0 0-.488281.128906-.984375.128906-1.472656 0-13.253906-10.746094-24-24-24s-24 10.746094-24 24c0 .488281.097656.984375.128906 1.472656zm0 0"/><path d="m223.953125 278.398438c10.664063 0 17.75-17.015626 24.605469-33.476563 3.789062-10.15625 8.699218-19.859375 14.640625-28.921875h-78.488281c5.941406 9.0625 10.847656 18.765625 14.625 28.921875 6.855468 16.460937 13.953124 33.476563 24.617187 33.476563zm0 0"/><path d="m312.566406 251.078125c-6.855468-16.460937-13.957031-33.476563-24.628906-33.476563s-17.753906 17.015626-24.609375 33.476563c-3.777344 10.15625-8.679687 19.855469-14.617187 28.921875h78.488281c-5.9375-9.066406-10.847657-18.765625-14.632813-28.921875zm0 0"/><path d="m40 224v56h31.199219c-5.9375-9.0625-10.839844-18.765625-14.613281-28.921875-3.582032-10.902344-9.1875-21.03125-16.53125-29.855469 0 .929688-.054688 1.847656-.054688 2.777344zm0 0"/><path d="m40 296h368v16h-368zm0 0"/><path d="m352 278.398438c10.671875 0 17.777344-17.015626 24.632812-33.476563 3.761719-10.152344 8.648438-19.855469 14.566407-28.921875h-78.488281c5.941406 9.0625 10.847656 18.765625 14.625 28.921875 6.855468 16.460937 13.960937 33.476563 24.664062 33.476563zm0 0"/><path d="m408 224c0-.9375-.054688-1.855469-.070312-2.792969-7.359376 8.820313-12.980469 18.957031-16.5625 29.871094-3.78125 10.15625-8.6875 19.855469-14.625 28.921875h31.257812zm0 0"/></svg>